<svg xmlns="http://www.w3.org/2000/svg" viewBox="0 0 100 100">
  <!-- 红色背景 -->
  <rect x="2" y="2" width="96" height="96" fill="#dc2626" rx="4" ry="4"/>
  
  <!-- 白色边框 -->
  <rect x="2" y="2" width="96" height="96" fill="none" stroke="#ffffff" stroke-width="1" rx="4" ry="4"/>
  
  <!-- 分割线 -->
  <line x1="50" y1="2" x2="50" y2="98" stroke="#ffffff" stroke-width="1"/>
  <line x1="2" y1="50" x2="98" y2="50" stroke="#ffffff" stroke-width="1"/>
  
  <!-- 左上角 - 向左上的箭头 -->
  <g transform="translate(25, 25)">
    <path d="M-8,-8 L8,-8 L8,-4 L4,-4 L4,4 L-4,4 L-4,-4 L-8,-4 Z" fill="#ffffff"/>
    <polygon points="-8,-8 -4,-4 -8,0" fill="#ffffff"/>
  </g>
  
  <!-- 右上角 - 向右上的箭头 -->
  <g transform="translate(75, 25)">
    <path d="M8,-8 L-8,-8 L-8,-4 L-4,-4 L-4,4 L4,4 L4,-4 L8,-4 Z" fill="#ffffff"/>
    <polygon points="8,-8 4,-4 8,0" fill="#ffffff"/>
  </g>
  
  <!-- 左下角 - 向左下的箭头 -->
  <g transform="translate(25, 75)">
    <path d="M-8,8 L8,8 L8,4 L4,4 L4,-4 L-4,-4 L-4,4 L-8,4 Z" fill="#ffffff"/>
    <polygon points="-8,8 -4,4 -8,0" fill="#ffffff"/>
  </g>
  
  <!-- 右下角 - 向右下的箭头 -->
  <g transform="translate(75, 75)">
    <path d="M8,8 L-8,8 L-8,4 L-4,4 L-4,-4 L4,-4 L4,4 L8,4 Z" fill="#ffffff"/>
    <polygon points="8,8 4,4 8,0" fill="#ffffff"/>
  </g>
</svg>