<?xml version="1.0" standalone="no"?>
<!DOCTYPE svg PUBLIC "-//W3C//DTD SVG 20010904//EN"
 "http://www.w3.org/TR/2001/REC-SVG-20010904/DTD/svg10.dtd">
<svg version="1.0" xmlns="http://www.w3.org/2000/svg"
 width="32.000000pt" height="32.000000pt" viewBox="0 0 64.000000 64.000000"
 preserveAspectRatio="xMidYMid meet">

<g transform="translate(0.000000,64.000000) scale(0.100000,-0.100000)"
fill="#8B0000" stroke="none">
<path d="M0 485 l0 -155 155 0 155 0 0 155 0 155 -155 0 -155 0 0 -155z m290
0 l0 -135 -135 0 -135 0 0 135 0 135 135 0 135 0 0 -135z"/>
<path d="M40 480 l0 -120 35 0 35 0 0 120 0 120 -35 0 -35 0 0 -120z"/>
<path d="M130 590 c0 -5 14 -10 31 -10 l30 0 -30 -37 c-49 -59 -43 -73 30 -73
44 0 60 3 56 13 -2 6 -18 12 -35 12 -18 0 -32 2 -32 6 0 3 14 18 30 34 17 16
30 37 30 47 0 15 -9 18 -55 18 -30 0 -55 -4 -55 -10z"/>
<path d="M160 436 c0 -3 9 -21 21 -40 17 -30 27 -36 55 -36 40 0 41 2 13 46
-17 28 -27 34 -55 34 -19 0 -34 -2 -34 -4z"/>
<path d="M330 485 l0 -155 155 0 155 0 0 155 0 155 -155 0 -155 0 0 -155z
m290 0 l0 -135 -135 0 -135 0 0 135 0 135 135 0 135 0 0 -135z"/>
<path d="M360 565 l0 -35 120 0 120 0 0 35 0 35 -120 0 -120 0 0 -35z"/>
<path d="M470 450 c0 -47 3 -60 15 -60 11 0 15 11 15 36 l0 36 40 -36 c22 -20
45 -36 50 -36 6 0 10 27 10 60 0 33 -4 60 -10 60 -5 0 -10 -14 -10 -31 l0 -31
-39 31 c-59 47 -71 43 -71 -29z"/>
<path d="M393 458 c-27 -16 -33 -26 -33 -54 0 -40 4 -41 48 -14 26 16 32 26
32 55 0 40 -3 41 -47 13z"/>
<path d="M0 155 l0 -155 155 0 155 0 0 155 0 155 -155 0 -155 0 0 -155z m290
-5 l0 -140 -135 0 -135 0 0 140 0 140 135 0 135 0 0 -140z"/>
<path d="M233 249 c-27 -17 -33 -28 -33 -55 0 -40 2 -41 46 -13 28 17 34 27
34 55 0 40 -4 41 -47 13z"/>
<path d="M147 243 c-4 -3 -7 -22 -7 -42 l0 -35 -38 37 c-52 51 -62 48 -62 -18
0 -30 5 -55 10 -55 6 0 10 14 10 32 l0 32 33 -32 c18 -18 43 -32 55 -32 20 0
22 5 22 60 0 55 -6 70 -23 53z"/>
<path d="M40 70 l0 -30 120 0 120 0 0 30 0 30 -120 0 -120 0 0 -30z"/>
<path d="M330 155 l0 -155 155 0 155 0 0 155 0 155 -155 0 -155 0 0 -155z
m290 -5 l0 -140 -135 0 -135 0 0 140 0 140 135 0 135 0 0 -140z"/>
<path d="M537 273 c-4 -3 -7 -57 -7 -120 l0 -113 35 0 35 0 0 120 0 120 -28 0
c-16 0 -32 -3 -35 -7z"/>
<path d="M387 238 c15 -27 26 -34 57 -36 21 -2 36 0 34 5 -29 61 -31 63 -71
63 l-39 0 19 -32z"/>
<path d="M390 155 c0 -11 11 -15 42 -15 l42 0 -37 -38 c-51 -52 -48 -62 18
-62 30 0 55 5 55 10 0 6 -14 10 -32 10 l-32 0 33 34 c49 50 40 70 -32 74 -46
2 -57 0 -57 -13z"/>
</g>
</svg>
